<?xml version="1.0" encoding="UTF-8"?>
<!DOCTYPE svg PUBLIC "-//W3C//DTD SVG 1.1//EN" "http://www.w3.org/Graphics/SVG/1.1/DTD/svg11.dtd">
<svg xmlns="http://www.w3.org/2000/svg" version="1.1" width="140px" height="142px" style="shape-rendering:geometricPrecision; text-rendering:geometricPrecision; image-rendering:optimizeQuality; fill-rule:evenodd; clip-rule:evenodd" xmlns:xlink="http://www.w3.org/1999/xlink">
<g><path style="opacity:1" fill="#eeeded" d="M -0.5,-0.5 C 46.1667,-0.5 92.8333,-0.5 139.5,-0.5C 139.5,46.8333 139.5,94.1667 139.5,141.5C 92.8333,141.5 46.1667,141.5 -0.5,141.5C -0.5,94.1667 -0.5,46.8333 -0.5,-0.5 Z"/></g>
<g><path style="opacity:1" fill="#fe5d40" d="M 69.5,35.5 C 72.9278,35.5465 75.9278,36.7132 78.5,39C 88.5476,47.3824 98.881,55.3824 109.5,63C 115.252,68.4119 114.252,71.4119 106.5,72C 94.9752,62.9746 83.3085,54.1413 71.5,45.5C 60.6533,53.4243 49.9866,61.591 39.5,70C 37.0859,71.8849 34.4192,72.5516 31.5,72C 29.3268,70.1353 28.9934,67.9686 30.5,65.5C 34.2793,62.8552 37.7793,59.8552 41,56.5C 41.499,52.1794 41.6657,47.8461 41.5,43.5C 45.1667,43.5 48.8333,43.5 52.5,43.5C 52.3398,45.1992 52.5065,46.8659 53,48.5C 58.6601,44.2676 64.1601,39.9343 69.5,35.5 Z"/></g>
<g><path style="opacity:1" fill="#fe5a3d" d="M 57.5,68.5 C 60.8333,68.5 64.1667,68.5 67.5,68.5C 67.5,71.8333 67.5,75.1667 67.5,78.5C 64.1667,78.5 60.8333,78.5 57.5,78.5C 57.5,75.1667 57.5,71.8333 57.5,68.5 Z"/></g>
<g><path style="opacity:1" fill="#fe6144" d="M 75.5,67.5 C 78.7766,67.2161 81.9433,67.5495 85,68.5C 85.4983,71.8168 85.665,75.1501 85.5,78.5C 82.1667,78.5 78.8333,78.5 75.5,78.5C 75.5,74.8333 75.5,71.1667 75.5,67.5 Z"/></g>
<g><path style="opacity:1" fill="#fe5e41" d="M 82.5,113.5 C 85.2971,111.205 87.9638,108.705 90.5,106C 87.1951,107.114 84.5284,109.281 82.5,112.5C 80.629,112.859 79.129,113.859 78,115.5C 77.3145,101.692 83.1478,91.8588 95.5,86C 101.129,84.8403 106.796,84.0069 112.5,83.5C 111.18,104.321 100.18,115.154 79.5,116C 80.3734,114.955 81.3734,114.122 82.5,113.5 Z"/></g>
<g><path style="opacity:1" fill="#fe6044" d="M 57.5,84.5 C 60.8333,84.5 64.1667,84.5 67.5,84.5C 67.5,88.1667 67.5,91.8333 67.5,95.5C 64.2234,95.7839 61.0567,95.4505 58,94.5C 57.5017,91.1832 57.335,87.8499 57.5,84.5 Z"/></g>
<g><path style="opacity:1" fill="#fe6145" d="M 75.5,84.5 C 78.8333,84.5 82.1667,84.5 85.5,84.5C 84.1989,90.1297 80.8655,93.7964 75.5,95.5C 75.5,91.8333 75.5,88.1667 75.5,84.5 Z"/></g>
<g><path style="opacity:1" fill="#fe5d40" d="M 45.5,101.5 C 50.5111,101.334 55.5111,101.501 60.5,102C 66.3092,105.309 70.9759,109.809 74.5,115.5C 59.3867,122.671 48.8867,118.671 43,103.5C 43.9947,102.934 44.828,102.267 45.5,101.5 Z"/></g>
<g><path style="opacity:1" fill="#f5bbb0" d="M 82.5,113.5 C 82.5,113.167 82.5,112.833 82.5,112.5C 84.5284,109.281 87.1951,107.114 90.5,106C 87.9638,108.705 85.2971,111.205 82.5,113.5 Z"/></g>
</svg>
